<?xml version="1.0" encoding="UTF-8" standalone="no"?>
<svg
   version="1.1"
   viewBox="0 0 16 16"
   width="48"
   height="48"
   id="svg61"
   sodipodi:docname="SonicSearch Logo.svg"
   inkscape:version="1.2.2 (b0a84865, 2022-12-01)"
   xmlns:inkscape="http://www.inkscape.org/namespaces/inkscape"
   xmlns:sodipodi="http://sodipodi.sourceforge.net/DTD/sodipodi-0.dtd"
   xmlns:xlink="http://www.w3.org/1999/xlink"
   xmlns="http://www.w3.org/2000/svg"
   xmlns:svg="http://www.w3.org/2000/svg">
  <sodipodi:namedview
     id="namedview63"
     pagecolor="#ffffff"
     bordercolor="#000000"
     borderopacity="0.25"
     inkscape:showpageshadow="2"
     inkscape:pageopacity="0.0"
     inkscape:pagecheckerboard="0"
     inkscape:deskcolor="#d1d1d1"
     showgrid="false"
     inkscape:zoom="9.5693863"
     inkscape:cx="16.458736"
     inkscape:cy="28.998725"
     inkscape:window-width="1506"
     inkscape:window-height="887"
     inkscape:window-x="314"
     inkscape:window-y="229"
     inkscape:window-maximized="0"
     inkscape:current-layer="svg61" />
  <!-- svg-source:excalidraw -->
  <defs
     id="defs11">
    <linearGradient
       inkscape:collect="always"
       id="linearGradient935">
      <stop
         style="stop-color:#ffffff;stop-opacity:1;"
         offset="0.80216807"
         id="stop931" />
      <stop
         style="stop-color:#1d1d1d;stop-opacity:0.49308759;"
         offset="0.82655829"
         id="stop933" />
    </linearGradient>
    <linearGradient
       inkscape:collect="always"
       id="linearGradient927">
      <stop
         style="stop-color:#ffffff;stop-opacity:0.27188939;"
         offset="0"
         id="stop923" />
      <stop
         style="stop-color:#abd5ff;stop-opacity:0.19354838;"
         offset="0.79403794"
         id="stop925" />
    </linearGradient>
    <style
       class="style-fonts"
       id="style9"></style>
    <radialGradient
       inkscape:collect="always"
       xlink:href="#linearGradient927"
       id="radialGradient929"
       cx="178.21001"
       cy="171.64999"
       fx="178.21001"
       fy="171.64999"
       r="178.77704"
       gradientTransform="matrix(1,0,0,0.96330625,0,6.298482)"
       gradientUnits="userSpaceOnUse" />
    <radialGradient
       inkscape:collect="always"
       xlink:href="#linearGradient935"
       id="radialGradient937"
       cx="214.39999"
       cy="206.795"
       fx="214.39999"
       fy="206.795"
       r="214.89999"
       gradientTransform="matrix(1,0,0,0.96461145,0,7.3181761)"
       gradientUnits="userSpaceOnUse" />
    <radialGradient
       inkscape:collect="always"
       xlink:href="#linearGradient935"
       id="radialGradient939"
       gradientUnits="userSpaceOnUse"
       gradientTransform="matrix(1,0,0,0.96461145,0,7.3181761)"
       cx="214.39999"
       cy="206.795"
       fx="214.39999"
       fy="206.795"
       r="214.89999" />
    <radialGradient
       inkscape:collect="always"
       xlink:href="#linearGradient935"
       id="radialGradient941"
       gradientUnits="userSpaceOnUse"
       gradientTransform="matrix(1,0,0,0.96461145,0,7.3181761)"
       cx="214.39999"
       cy="206.795"
       fx="214.39999"
       fy="206.795"
       r="214.89999" />
    <radialGradient
       inkscape:collect="always"
       xlink:href="#linearGradient927"
       id="radialGradient943"
       gradientUnits="userSpaceOnUse"
       gradientTransform="matrix(1,0,0,0.96330625,0,6.298482)"
       cx="178.21001"
       cy="171.64999"
       fx="178.21001"
       fy="171.64999"
       r="178.77704" />
    <radialGradient
       inkscape:collect="always"
       xlink:href="#linearGradient927"
       id="radialGradient945"
       gradientUnits="userSpaceOnUse"
       gradientTransform="matrix(1,0,0,0.96330625,0,6.298482)"
       cx="178.21001"
       cy="171.64999"
       fx="178.21001"
       fy="171.64999"
       r="178.77704" />
  </defs>
  <g
     stroke-linecap="round"
     transform="matrix(0.02843134,0,0,0.0300453,1.850809,1.6931921)"
     id="g17"
     style="fill:url(#radialGradient937);fill-opacity:1;stroke:#000000;stroke-width:0.999983;stroke-dasharray:none;stroke-opacity:1">
    <path
       d="m 428.8,206.8 c 0,4.5 -0.16,9.02 -0.46,13.52 -0.31,4.5 -0.77,9 -1.38,13.47 -0.61,4.47 -1.37,8.93 -2.28,13.35 -0.91,4.42 -1.98,8.82 -3.19,13.18 -1.21,4.35 -2.57,8.68 -4.07,12.95 -1.5,4.27 -3.15,8.5 -4.94,12.66 -1.79,4.17 -3.73,8.29 -5.79,12.33 -2.07,4.04 -4.28,8.03 -6.62,11.93 -2.33,3.91 -4.81,7.75 -7.41,11.5 -2.59,3.74 -5.32,7.42 -8.17,10.99 -2.84,3.58 -5.82,7.08 -8.9,10.47 -3.08,3.39 -6.28,6.68 -9.59,9.87 -3.3,3.19 -6.72,6.28 -10.24,9.25 -3.51,2.98 -7.14,5.84 -10.84,8.59 -3.71,2.74 -7.52,5.38 -11.41,7.88 -3.88,2.5 -7.86,4.89 -11.91,7.15 -4.05,2.25 -8.18,4.38 -12.38,6.38 -4.19,1.99 -8.46,3.85 -12.77,5.58 -4.32,1.73 -8.71,3.32 -13.14,4.77 -4.42,1.45 -8.91,2.76 -13.42,3.92 -4.52,1.17 -9.08,2.2 -13.66,3.08 -4.59,0.88 -9.21,1.61 -13.85,2.2 -4.63,0.59 -9.3,1.03 -13.96,1.33 -4.66,0.29 -9.35,0.44 -14.02,0.44 -4.68,0 -9.36,-0.15 -14.02,-0.44 -4.67,-0.3 -9.33,-0.74 -13.97,-1.33 -4.63,-0.59 -9.25,-1.32 -13.84,-2.2 -4.58,-0.88 -9.15,-1.91 -13.66,-3.08 -4.52,-1.16 -9,-2.47 -13.43,-3.92 -4.42,-1.45 -8.81,-3.04 -13.13,-4.77 -4.32,-1.73 -8.59,-3.59 -12.78,-5.58 -4.19,-2 -8.32,-4.13 -12.37,-6.38 -4.05,-2.26 -8.03,-4.65 -11.91,-7.15 -3.89,-2.5 -7.7,-5.14 -11.41,-7.88 -3.71,-2.75 -7.33,-5.61 -10.84,-8.59 -3.52,-2.97 -6.94,-6.06 -10.24,-9.25 -3.31,-3.19 -6.51,-6.48 -9.59,-9.87 -3.09,-3.39 -6.06,-6.89 -8.91,-10.47 -2.84,-3.57 -5.57,-7.25 -8.17,-10.99 -2.59,-3.75 -5.07,-7.59 -7.41,-11.5 -2.33,-3.9 -4.54,-7.89 -6.61,-11.93 -2.07,-4.04 -4,-8.16 -5.79,-12.33 -1.79,-4.16 -3.44,-8.39 -4.94,-12.66 C 9.88,269 8.52,264.67 7.31,260.32 6.1,255.96 5.03,251.56 4.12,247.14 3.21,242.72 2.44,238.26 1.83,233.79 1.22,229.32 0.76,224.82 0.46,220.32 0.15,215.82 0,211.3 0,206.8 c 0,-4.51 0.15,-9.03 0.46,-13.53 0.3,-4.5 0.76,-9 1.37,-13.47 0.61,-4.47 1.38,-8.93 2.29,-13.35 0.91,-4.42 1.98,-8.82 3.19,-13.18 1.21,-4.35 2.57,-8.68 4.07,-12.95 1.5,-4.27 3.15,-8.5 4.94,-12.66 1.79,-4.17 3.72,-8.28 5.79,-12.33 2.07,-4.04 4.28,-8.03 6.61,-11.93 2.34,-3.91 4.82,-7.75 7.41,-11.49 2.6,-3.75 5.33,-7.43 8.17,-11 2.85,-3.58 5.82,-7.07 8.91,-10.46 3.08,-3.39 6.28,-6.69 9.59,-9.88 3.3,-3.19 6.72,-6.28 10.24,-9.25 3.51,-2.97 7.13,-5.84 10.84,-8.59 3.71,-2.74 7.52,-5.37 11.41,-7.88 3.88,-2.5 7.86,-4.89 11.91,-7.14 4.05,-2.26 8.18,-4.39 12.37,-6.38 4.19,-2 8.46,-3.86 12.78,-5.59 4.32,-1.72 8.71,-3.32 13.13,-4.77 4.43,-1.44 8.91,-2.76 13.43,-3.92 4.51,-1.17 9.08,-2.2 13.66,-3.08 4.59,-0.88 9.21,-1.61 13.84,-2.2 4.64,-0.59 9.3,-1.03 13.97,-1.33 C 205.04,0.15 209.72,0 214.4,0 c 4.67,0 9.36,0.15 14.02,0.44 4.66,0.3 9.33,0.74 13.96,1.33 4.64,0.59 9.26,1.32 13.85,2.2 4.58,0.88 9.14,1.91 13.66,3.08 4.51,1.16 9,2.48 13.42,3.92 4.43,1.45 8.82,3.05 13.14,4.77 4.31,1.73 8.58,3.59 12.77,5.59 4.2,1.99 8.33,4.12 12.38,6.38 4.05,2.25 8.03,4.64 11.91,7.14 3.89,2.51 7.7,5.14 11.41,7.88 3.7,2.75 7.33,5.62 10.84,8.59 3.52,2.97 6.94,6.06 10.24,9.25 3.31,3.19 6.51,6.49 9.59,9.88 3.08,3.39 6.06,6.88 8.9,10.46 2.85,3.57 5.58,7.25 8.17,11 2.6,3.74 5.08,7.58 7.41,11.49 2.34,3.9 4.55,7.89 6.62,11.93 2.06,4.05 4,8.16 5.79,12.33 1.79,4.16 3.44,8.39 4.94,12.66 1.5,4.27 2.86,8.6 4.07,12.95 1.21,4.36 2.28,8.76 3.19,13.18 0.91,4.42 1.67,8.88 2.28,13.35 0.61,4.47 1.07,8.97 1.38,13.47 0.3,4.5 0.46,9.02 0.46,13.53"
       stroke="none"
       stroke-width="0"
       fill="#ffffff"
       id="path13"
       style="fill:url(#radialGradient939);fill-opacity:1;stroke:#000000;stroke-width:0.999983;stroke-dasharray:none;stroke-opacity:1" />
    <path
       d="m 428.8,206.8 c 0,4.5 -0.16,9.02 -0.46,13.52 -0.31,4.5 -0.77,9 -1.38,13.47 -0.61,4.47 -1.37,8.93 -2.28,13.35 -0.91,4.42 -1.98,8.82 -3.19,13.18 -1.21,4.35 -2.57,8.68 -4.07,12.95 -1.5,4.27 -3.15,8.5 -4.94,12.66 -1.79,4.17 -3.73,8.29 -5.79,12.33 -2.07,4.04 -4.28,8.03 -6.62,11.93 -2.33,3.91 -4.81,7.75 -7.41,11.5 -2.59,3.74 -5.32,7.42 -8.17,10.99 -2.84,3.58 -5.82,7.08 -8.9,10.47 -3.08,3.39 -6.28,6.68 -9.59,9.87 -3.3,3.19 -6.72,6.28 -10.24,9.25 -3.51,2.98 -7.14,5.84 -10.84,8.59 -3.71,2.74 -7.52,5.38 -11.41,7.88 -3.88,2.5 -7.86,4.89 -11.91,7.15 -4.05,2.25 -8.18,4.38 -12.38,6.38 -4.19,1.99 -8.46,3.85 -12.77,5.58 -4.32,1.73 -8.71,3.32 -13.14,4.77 -4.42,1.45 -8.91,2.76 -13.42,3.92 -4.52,1.17 -9.08,2.2 -13.66,3.08 -4.59,0.88 -9.21,1.61 -13.85,2.2 -4.63,0.59 -9.3,1.03 -13.96,1.33 -4.66,0.29 -9.35,0.44 -14.02,0.44 -4.68,0 -9.36,-0.15 -14.02,-0.44 -4.67,-0.3 -9.33,-0.74 -13.97,-1.33 -4.63,-0.59 -9.25,-1.32 -13.84,-2.2 -4.58,-0.88 -9.15,-1.91 -13.66,-3.08 -4.52,-1.16 -9,-2.47 -13.43,-3.92 -4.42,-1.45 -8.81,-3.04 -13.13,-4.77 -4.32,-1.73 -8.59,-3.59 -12.78,-5.58 -4.19,-2 -8.32,-4.13 -12.37,-6.38 -4.05,-2.26 -8.03,-4.65 -11.91,-7.15 -3.89,-2.5 -7.7,-5.14 -11.41,-7.88 -3.71,-2.75 -7.33,-5.61 -10.84,-8.59 -3.52,-2.97 -6.94,-6.06 -10.24,-9.25 -3.31,-3.19 -6.51,-6.48 -9.59,-9.87 -3.09,-3.39 -6.06,-6.89 -8.91,-10.47 -2.84,-3.57 -5.57,-7.25 -8.17,-10.99 -2.59,-3.75 -5.07,-7.59 -7.41,-11.5 -2.33,-3.9 -4.54,-7.89 -6.61,-11.93 -2.07,-4.04 -4,-8.16 -5.79,-12.33 -1.79,-4.16 -3.44,-8.39 -4.94,-12.66 C 9.88,269 8.52,264.67 7.31,260.32 6.1,255.96 5.03,251.56 4.12,247.14 3.21,242.72 2.44,238.26 1.83,233.79 1.22,229.32 0.76,224.82 0.46,220.32 0.15,215.82 0,211.3 0,206.8 c 0,-4.51 0.15,-9.03 0.46,-13.53 0.3,-4.5 0.76,-9 1.37,-13.47 0.61,-4.47 1.38,-8.93 2.29,-13.35 0.91,-4.42 1.98,-8.82 3.19,-13.18 1.21,-4.35 2.57,-8.68 4.07,-12.95 1.5,-4.27 3.15,-8.5 4.94,-12.66 1.79,-4.17 3.72,-8.28 5.79,-12.33 2.07,-4.04 4.28,-8.03 6.61,-11.93 2.34,-3.91 4.82,-7.75 7.41,-11.49 2.6,-3.75 5.33,-7.43 8.17,-11 2.85,-3.58 5.82,-7.07 8.91,-10.46 3.08,-3.39 6.28,-6.69 9.59,-9.88 3.3,-3.19 6.72,-6.28 10.24,-9.25 3.51,-2.97 7.13,-5.84 10.84,-8.59 3.71,-2.74 7.52,-5.37 11.41,-7.88 3.88,-2.5 7.86,-4.89 11.91,-7.14 4.05,-2.26 8.18,-4.39 12.37,-6.38 4.19,-2 8.46,-3.86 12.78,-5.59 4.32,-1.72 8.71,-3.32 13.13,-4.77 4.43,-1.44 8.91,-2.76 13.43,-3.92 4.51,-1.17 9.08,-2.2 13.66,-3.08 4.59,-0.88 9.21,-1.61 13.84,-2.2 4.64,-0.59 9.3,-1.03 13.97,-1.33 C 205.04,0.15 209.72,0 214.4,0 c 4.67,0 9.36,0.15 14.02,0.44 4.66,0.3 9.33,0.74 13.96,1.33 4.64,0.59 9.26,1.32 13.85,2.2 4.58,0.88 9.14,1.91 13.66,3.08 4.51,1.16 9,2.48 13.42,3.92 4.43,1.45 8.82,3.05 13.14,4.77 4.31,1.73 8.58,3.59 12.77,5.59 4.2,1.99 8.33,4.12 12.38,6.38 4.05,2.25 8.03,4.64 11.91,7.14 3.89,2.51 7.7,5.14 11.41,7.88 3.7,2.75 7.33,5.62 10.84,8.59 3.52,2.97 6.94,6.06 10.24,9.25 3.31,3.19 6.51,6.49 9.59,9.88 3.08,3.39 6.06,6.88 8.9,10.46 2.85,3.57 5.58,7.25 8.17,11 2.6,3.74 5.08,7.58 7.41,11.49 2.34,3.9 4.55,7.89 6.62,11.93 2.06,4.05 4,8.16 5.79,12.33 1.79,4.16 3.44,8.39 4.94,12.66 1.5,4.27 2.86,8.6 4.07,12.95 1.21,4.36 2.28,8.76 3.19,13.18 0.91,4.42 1.67,8.88 2.28,13.35 0.61,4.47 1.07,8.97 1.38,13.47 0.3,4.5 0.46,9.02 0.46,13.53"
       stroke="#1e1e1e"
       stroke-width="2"
       fill="none"
       id="path15"
       style="fill:url(#radialGradient941);fill-opacity:1;stroke:#000000;stroke-width:0.999983;stroke-dasharray:none;stroke-opacity:1" />
  </g>
  <g
     stroke-linecap="round"
     transform="matrix(0.02843134,0,0,0.0300453,2.8539449,2.836846)"
     id="g23"
     style="opacity:1;fill:url(#radialGradient929);fill-opacity:1;stroke:#000000;stroke-width:1.13409;stroke-dasharray:none;stroke-opacity:1">
    <path
       d="m 356.42,171.65 c 0,4.08 -0.15,8.17 -0.46,12.24 -0.3,4.07 -0.75,8.15 -1.35,12.19 -0.61,4.04 -1.36,8.07 -2.26,12.05 -0.9,3.99 -1.96,7.96 -3.15,11.88 -1.19,3.91 -2.54,7.8 -4.02,11.62 -1.48,3.83 -3.11,7.61 -4.87,11.32 -1.76,3.72 -3.66,7.38 -5.69,10.96 -2.03,3.58 -4.2,7.1 -6.49,10.54 -2.29,3.43 -4.72,6.79 -7.26,10.06 -2.54,3.27 -5.2,6.46 -7.98,9.54 -2.77,3.09 -5.67,6.08 -8.67,8.97 -2.99,2.89 -6.11,5.68 -9.31,8.35 -3.2,2.67 -6.51,5.24 -9.9,7.69 -3.4,2.44 -6.89,4.78 -10.45,6.99 -3.57,2.2 -7.22,4.29 -10.94,6.25 -3.72,1.96 -7.52,3.79 -11.38,5.48 -3.85,1.7 -7.78,3.27 -11.75,4.69 -3.97,1.43 -8.01,2.72 -12.07,3.87 -4.07,1.15 -8.19,2.17 -12.33,3.03 -4.14,0.87 -8.32,1.6 -12.52,2.18 -4.19,0.58 -8.42,1.02 -12.65,1.31 -4.22,0.29 -8.47,0.44 -12.71,0.44 -4.24,0 -8.49,-0.15 -12.71,-0.44 -4.23,-0.29 -8.46,-0.73 -12.65,-1.31 -4.2,-0.58 -8.38,-1.31 -12.52,-2.18 -4.14,-0.86 -8.26,-1.88 -12.33,-3.03 -4.06,-1.15 -8.1,-2.44 -12.07,-3.87 -3.97,-1.42 -7.9,-2.99 -11.75,-4.69 -3.86,-1.69 -7.66,-3.52 -11.38,-5.48 -3.72,-1.96 -7.37,-4.05 -10.94,-6.25 -3.56,-2.21 -7.05,-4.55 -10.45,-6.99 -3.39,-2.45 -6.7,-5.02 -9.9,-7.69 -3.21,-2.67 -6.32,-5.46 -9.31,-8.35 -3,-2.89 -5.9,-5.88 -8.67,-8.97 -2.78,-3.08 -5.44,-6.27 -7.98,-9.54 -2.54,-3.27 -4.97,-6.63 -7.26,-10.06 -2.29,-3.44 -4.46,-6.96 -6.49,-10.54 -2.03,-3.58 -3.94,-7.24 -5.7,-10.96 -1.76,-3.71 -3.38,-7.49 -4.86,-11.32 C 9.76,227.81 8.41,223.92 7.22,220.01 6.02,216.09 4.97,212.12 4.07,208.13 3.17,204.15 2.42,200.12 1.81,196.08 1.21,192.04 0.76,187.96 0.45,183.89 0.15,179.82 0,175.73 0,171.65 c 0,-4.08 0.15,-8.18 0.45,-12.25 0.31,-4.07 0.76,-8.14 1.36,-12.18 0.61,-4.04 1.36,-8.07 2.26,-12.06 0.9,-3.99 1.95,-7.95 3.15,-11.87 1.19,-3.92 2.54,-7.8 4.02,-11.63 1.48,-3.82 3.1,-7.6 4.86,-11.32 1.76,-3.71 3.67,-7.37 5.7,-10.95 2.03,-3.59 4.2,-7.11 6.49,-10.54 2.29,-3.44 4.72,-6.8 7.26,-10.07 2.54,-3.26 5.2,-6.45 7.98,-9.54 2.77,-3.08 5.67,-6.08 8.67,-8.97 2.99,-2.88 6.1,-5.67 9.31,-8.34 3.2,-2.68 6.51,-5.25 9.9,-7.69 3.4,-2.45 6.89,-4.78 10.45,-6.99 3.57,-2.21 7.22,-4.3 10.94,-6.25 3.72,-1.96 7.52,-3.79 11.38,-5.49 3.85,-1.69 7.78,-3.26 11.75,-4.69 3.97,-1.42 8.01,-2.72 12.07,-3.87 4.07,-1.15 8.19,-2.16 12.33,-3.03 4.14,-0.86 8.32,-1.59 12.52,-2.17 4.19,-0.58 8.42,-1.02 12.65,-1.31 4.22,-0.29 8.47,-0.44 12.71,-0.44 4.24,0 8.49,0.15 12.71,0.44 4.23,0.29 8.46,0.73 12.65,1.31 4.2,0.58 8.38,1.31 12.52,2.17 4.14,0.87 8.26,1.88 12.33,3.03 4.06,1.15 8.1,2.45 12.07,3.87 3.97,1.43 7.9,3 11.75,4.69 3.86,1.7 7.66,3.53 11.38,5.49 3.72,1.95 7.37,4.04 10.94,6.25 3.56,2.21 7.05,4.54 10.45,6.99 3.39,2.44 6.7,5.01 9.9,7.69 3.2,2.67 6.32,5.46 9.31,8.34 3,2.89 5.9,5.89 8.67,8.97 2.78,3.09 5.44,6.28 7.98,9.54 2.54,3.27 4.97,6.63 7.26,10.07 2.29,3.43 4.46,6.95 6.49,10.54 2.03,3.58 3.93,7.24 5.69,10.95 1.76,3.72 3.39,7.5 4.87,11.32 1.48,3.83 2.83,7.71 4.02,11.63 1.19,3.92 2.25,7.88 3.15,11.87 0.9,3.99 1.65,8.02 2.26,12.06 0.6,4.04 1.05,8.11 1.35,12.18 0.31,4.07 0.46,8.17 0.46,12.25"
       stroke="none"
       stroke-width="0"
       fill="#ffffff"
       id="path19"
       style="fill:url(#radialGradient943);fill-opacity:1;stroke:#000000;stroke-width:1.13409;stroke-dasharray:none;stroke-opacity:1" />
    <path
       d="m 356.42,171.65 c 0,4.08 -0.15,8.17 -0.46,12.24 -0.3,4.07 -0.75,8.15 -1.35,12.19 -0.61,4.04 -1.36,8.07 -2.26,12.05 -0.9,3.99 -1.96,7.96 -3.15,11.88 -1.19,3.91 -2.54,7.8 -4.02,11.62 -1.48,3.83 -3.11,7.61 -4.87,11.32 -1.76,3.72 -3.66,7.38 -5.69,10.96 -2.03,3.58 -4.2,7.1 -6.49,10.54 -2.29,3.43 -4.72,6.79 -7.26,10.06 -2.54,3.27 -5.2,6.46 -7.98,9.54 -2.77,3.09 -5.67,6.08 -8.67,8.97 -2.99,2.89 -6.11,5.68 -9.31,8.35 -3.2,2.67 -6.51,5.24 -9.9,7.69 -3.4,2.44 -6.89,4.78 -10.45,6.99 -3.57,2.2 -7.22,4.29 -10.94,6.25 -3.72,1.96 -7.52,3.79 -11.38,5.48 -3.85,1.7 -7.78,3.27 -11.75,4.69 -3.97,1.43 -8.01,2.72 -12.07,3.87 -4.07,1.15 -8.19,2.17 -12.33,3.03 -4.14,0.87 -8.32,1.6 -12.52,2.18 -4.19,0.58 -8.42,1.02 -12.65,1.31 -4.22,0.29 -8.47,0.44 -12.71,0.44 -4.24,0 -8.49,-0.15 -12.71,-0.44 -4.23,-0.29 -8.46,-0.73 -12.65,-1.31 -4.2,-0.58 -8.38,-1.31 -12.52,-2.18 -4.14,-0.86 -8.26,-1.88 -12.33,-3.03 -4.06,-1.15 -8.1,-2.44 -12.07,-3.87 -3.97,-1.42 -7.9,-2.99 -11.75,-4.69 -3.86,-1.69 -7.66,-3.52 -11.38,-5.48 -3.72,-1.96 -7.37,-4.05 -10.94,-6.25 -3.56,-2.21 -7.05,-4.55 -10.45,-6.99 -3.39,-2.45 -6.7,-5.02 -9.9,-7.69 -3.21,-2.67 -6.32,-5.46 -9.31,-8.35 -3,-2.89 -5.9,-5.88 -8.67,-8.97 -2.78,-3.08 -5.44,-6.27 -7.98,-9.54 -2.54,-3.27 -4.97,-6.63 -7.26,-10.06 -2.29,-3.44 -4.46,-6.96 -6.49,-10.54 -2.03,-3.58 -3.94,-7.24 -5.7,-10.96 -1.76,-3.71 -3.38,-7.49 -4.86,-11.32 C 9.76,227.81 8.41,223.92 7.22,220.01 6.02,216.09 4.97,212.12 4.07,208.13 3.17,204.15 2.42,200.12 1.81,196.08 1.21,192.04 0.76,187.96 0.45,183.89 0.15,179.82 0,175.73 0,171.65 c 0,-4.08 0.15,-8.18 0.45,-12.25 0.31,-4.07 0.76,-8.14 1.36,-12.18 0.61,-4.04 1.36,-8.07 2.26,-12.06 0.9,-3.99 1.95,-7.95 3.15,-11.87 1.19,-3.92 2.54,-7.8 4.02,-11.63 1.48,-3.82 3.1,-7.6 4.86,-11.32 1.76,-3.71 3.67,-7.37 5.7,-10.95 2.03,-3.59 4.2,-7.11 6.49,-10.54 2.29,-3.44 4.72,-6.8 7.26,-10.07 2.54,-3.26 5.2,-6.45 7.98,-9.54 2.77,-3.08 5.67,-6.08 8.67,-8.97 2.99,-2.88 6.1,-5.67 9.31,-8.34 3.2,-2.68 6.51,-5.25 9.9,-7.69 3.4,-2.45 6.89,-4.78 10.45,-6.99 3.57,-2.21 7.22,-4.3 10.94,-6.25 3.72,-1.96 7.52,-3.79 11.38,-5.49 3.85,-1.69 7.78,-3.26 11.75,-4.69 3.97,-1.42 8.01,-2.72 12.07,-3.87 4.07,-1.15 8.19,-2.16 12.33,-3.03 4.14,-0.86 8.32,-1.59 12.52,-2.17 4.19,-0.58 8.42,-1.02 12.65,-1.31 4.22,-0.29 8.47,-0.44 12.71,-0.44 4.24,0 8.49,0.15 12.71,0.44 4.23,0.29 8.46,0.73 12.65,1.31 4.2,0.58 8.38,1.31 12.52,2.17 4.14,0.87 8.26,1.88 12.33,3.03 4.06,1.15 8.1,2.45 12.07,3.87 3.97,1.43 7.9,3 11.75,4.69 3.86,1.7 7.66,3.53 11.38,5.49 3.72,1.95 7.37,4.04 10.94,6.25 3.56,2.21 7.05,4.54 10.45,6.99 3.39,2.44 6.7,5.01 9.9,7.69 3.2,2.67 6.32,5.46 9.31,8.34 3,2.89 5.9,5.89 8.67,8.97 2.78,3.09 5.44,6.28 7.98,9.54 2.54,3.27 4.97,6.63 7.26,10.07 2.29,3.43 4.46,6.95 6.49,10.54 2.03,3.58 3.93,7.24 5.69,10.95 1.76,3.72 3.39,7.5 4.87,11.32 1.48,3.83 2.83,7.71 4.02,11.63 1.19,3.92 2.25,7.88 3.15,11.87 0.9,3.99 1.65,8.02 2.26,12.06 0.6,4.04 1.05,8.11 1.35,12.18 0.31,4.07 0.46,8.17 0.46,12.25"
       stroke="#1e1e1e"
       stroke-width="2"
       fill="none"
       id="path21"
       style="fill:url(#radialGradient945);fill-opacity:1;stroke:#000000;stroke-width:1.13409;stroke-dasharray:none;stroke-opacity:1" />
  </g>
  <g
     transform="matrix(0.02843134,0,0,0.0300453,4.3610509,7.9696146)"
     stroke="none"
     id="g35">
    <path
       fill="#1e1e1e"
       d="m -4.97,0 q 0,0 -0.1,-1.3 -0.1,-1.3 -0.31,-3.52 -0.21,-2.23 0.56,-5.05 0.77,-2.82 2.69,-4.51 1.91,-1.7 3.89,-2.61 1.99,-0.92 5.01,-0.29 3.02,0.63 4.7,2.97 1.68,2.34 2.13,4.51 0.46,2.17 1.13,4.26 0.68,2.09 0.9,4.66 0.22,2.56 0.29,5.19 0.07,2.63 0.14,5.25 0.06,2.63 -0.07,5.42 -0.12,2.78 -0.54,5.09 -0.41,2.31 -2.81,-0.17 -2.4,-2.49 -0.85,-4.29 1.55,-1.8 2.12,-3.84 0.57,-2.05 1.01,-5.03 0.44,-2.98 0.65,-6.06 0.21,-3.07 0.49,-6.13 0.28,-3.07 0.33,-5.3 0.04,-2.24 0.27,-4.74 0.23,-2.49 0.44,-4.64 0.21,-2.14 0.55,-5.08 0.34,-2.94 0.85,-5.41 0.52,-2.47 1.04,-4.64 0.52,-2.18 1.2,-4.47 0.67,-2.3 1.47,-4.56 0.8,-2.26 1.55,-4.37 0.74,-2.12 1.8,-3.99 1.05,-1.87 3.11,-3.86 2.05,-1.99 4.62,-2.77 2.58,-0.78 4.96,-0.61 2.38,0.16 4.88,1.87 2.51,1.71 3.97,4.26 1.46,2.56 2.09,5.01 0.63,2.46 0.71,5.07 0.09,2.61 0.08,5.42 -0.01,2.82 -0.11,5.14 -0.11,2.33 -0.59,4.49 -0.48,2.15 -1.11,5.29 -0.63,3.15 -1.06,5.94 -0.43,2.8 -0.76,5.84 -0.32,3.04 -0.69,6.49 -0.36,3.45 -0.47,6.47 -0.1,3.03 -0.14,6.07 -0.03,3.04 -0.09,6.62 -0.06,3.58 -0.05,6.29 0.01,2.7 0.03,5.29 0.02,2.58 0.03,5.18 0.01,2.61 0.1,5.39 0.08,2.79 0.89,4.9 0.81,2.1 1.71,4.62 0.89,2.52 1.8,4.94 0.91,2.42 2.05,-0.49 1.13,-2.92 1.53,-6.43 0.4,-3.51 0.62,-6.36 0.21,-2.85 0.42,-6.02 0.21,-3.16 0.4,-6.44 0.19,-3.28 0.42,-6.92 0.23,-3.65 0.49,-7.57 0.25,-3.93 0.46,-7.89 0.2,-3.95 0.35,-7.88 0.15,-3.93 0.35,-8.29 0.2,-4.36 0.23,-7.43 0.04,-3.07 0.34,-6.49 0.31,-3.42 0.54,-6.64 0.24,-3.23 0.49,-6.53 0.26,-3.31 0.66,-6.66 0.4,-3.34 0.71,-6.22 0.31,-2.87 0.48,-5.27 0.18,-2.39 0.31,-4.62 0.13,-2.24 0.37,-6.23 0.24,-4 0.57,-7.41 0.32,-3.41 0.91,-6.01 0.59,-2.6 1.33,-5.13 0.74,-2.54 3.3,-4.85 2.55,-2.3 4.74,-2.61 2.18,-0.31 5.11,-0.17 2.93,0.13 5.71,1.36 2.79,1.22 4.68,3.08 1.88,1.85 2.62,4.55 0.75,2.7 0.83,5.07 0.08,2.36 0.1,4.49 0.01,2.14 0,4.94 -0.01,2.81 -0.06,6.23 -0.04,3.43 0.25,6.98 0.29,3.55 0.89,7.1 0.6,3.54 1.33,7.7 0.73,4.16 1.09,6.71 0.36,2.54 0.64,5.05 0.28,2.51 0.5,4.91 0.22,2.4 0.36,4.88 0.14,2.49 0.19,4.92 0.06,2.43 0.08,4.67 0.02,2.24 0.02,4.53 0,2.29 0.24,6.26 0.23,3.97 0.6,7.66 0.38,3.68 0.64,6.22 0.27,2.53 0.66,5.6 0.4,3.08 1.04,5.83 0.65,2.74 1.45,5.73 0.81,3 1.49,5.83 0.67,2.84 1.45,5.73 0.78,2.89 1.75,4.79 0.98,1.89 -0.01,3.82 -0.99,1.93 -0.63,-0.19 0.37,-2.12 0.58,-5.66 0.2,-3.54 0.37,-6.3 0.16,-2.76 0.39,-6.06 0.23,-3.29 0.66,-7.23 0.43,-3.93 1.09,-8.25 0.67,-4.32 1.39,-8.76 0.72,-4.43 1.36,-8.51 0.63,-4.09 1.11,-7.64 0.47,-3.55 1,-8.01 0.53,-4.46 0.66,-7.2 0.13,-2.73 0.36,-5.28 0.22,-2.55 0.35,-4.71 0.12,-2.16 0.03,-5.64 -0.1,-3.48 -0.27,-6.36 -0.16,-2.88 -0.31,-5.38 -0.16,-2.5 -0.33,-5.49 -0.18,-2.98 -0.01,-5.36 0.18,-2.37 1.3,-4.65 1.12,-2.27 3.49,-3.46 2.37,-1.19 4.57,-1.34 2.19,-0.15 5.18,0.29 2.99,0.44 5.18,2.85 2.18,2.42 2.92,5.34 0.74,2.92 0.88,5.39 0.14,2.47 0.76,4.95 0.62,2.48 1.3,4.55 0.68,2.07 1.86,4.67 1.18,2.59 2.34,5.3 1.17,2.71 2.22,5.24 1.06,2.52 1.63,4.69 0.58,2.16 0.7,4.41 0.13,2.24 0.17,4.89 0.05,2.64 0.52,5.25 0.47,2.6 2.04,4.68 1.56,2.08 2.81,3.85 1.24,1.77 -0.11,0.01 -1.34,-1.75 -0.74,-4.12 0.6,-2.37 0.72,-4.62 0.13,-2.24 0.47,-4.64 0.33,-2.39 1.08,-4.63 0.76,-2.25 1.8,-4.51 1.05,-2.27 2.27,-4.8 1.23,-2.53 2.59,-4.75 1.36,-2.23 3.32,-3.87 1.95,-1.64 4.44,-2.5 2.5,-0.87 4.81,-1.03 2.31,-0.17 5.3,1.13 2.99,1.3 4.27,3.26 1.27,1.95 1.47,4.25 0.19,2.29 0.2,4.8 0,2.51 -0.03,4.96 -0.03,2.44 -0.6,4.98 -0.58,2.54 -1.73,5.2 -1.15,2.67 -2.07,4.98 -0.92,2.32 -1.39,4.58 -0.48,2.26 -0.49,4.61 -0.01,2.35 0.01,4.62 0.01,2.27 2.04,1.08 2.03,-1.19 3.74,-2.87 1.71,-1.68 2.6,-3.78 0.9,-2.1 1.73,-4.42 0.84,-2.32 1.78,-5.19 0.94,-2.86 1.75,-5.54 0.81,-2.68 1.61,-5.46 0.8,-2.78 1.6,-5.6 0.8,-2.82 1.58,-5.56 0.79,-2.74 1.54,-5.24 0.75,-2.5 1.64,-5.25 0.9,-2.74 1.82,-5.35 0.93,-2.61 2.06,-5 1.13,-2.39 2.69,-4.44 1.56,-2.06 3.64,-3.82 2.08,-1.76 3.84,-3.54 1.75,-1.78 3.84,-3.13 2.08,-1.35 4.37,-1.78 2.3,-0.42 5.57,1.2 3.28,1.63 4.15,3.59 0.87,1.97 0.97,4.15 0.1,2.18 -0.04,5.57 -0.14,3.39 -1.09,6.19 -0.95,2.81 -1.72,5.27 -0.76,2.46 -0.96,5 -0.2,2.54 -0.33,6.02 -0.12,3.49 -0.38,8.47 -0.25,4.98 -0.26,8.44 -0.01,3.45 -0.02,6.91 -0.01,3.47 -0.01,6.77 0,3.3 0.04,5.93 0.03,2.64 0.07,5.15 0.03,2.51 -0.03,5.23 -0.05,2.72 -0.24,5.08 -0.18,2.37 -0.18,5.09 -0.01,2.72 0.06,4.93 0.06,2.22 -0.25,-0.07 -0.3,-2.29 0.56,-4.24 0.86,-1.95 1.34,-4.16 0.48,-2.2 0.79,-5.14 0.32,-2.93 0.83,-5.55 0.52,-2.62 1.03,-4.9 0.52,-2.27 1,-4.54 0.48,-2.26 0.92,-4.4 0.45,-2.15 1.48,-4.97 1.03,-2.82 2.42,-4.68 1.39,-1.86 3.61,-3.41 2.22,-1.55 4.67,-2.23 2.45,-0.67 4.34,-1.88 1.89,-1.22 4.11,-1.78 2.22,-0.56 4.76,0.09 2.55,0.66 4.13,2.21 1.58,1.55 2.24,3.71 0.66,2.17 1,4.52 0.34,2.35 0.36,4.75 0.02,2.4 -1.71,1.03 -1.72,-1.36 0.13,-0.59 1.86,0.78 2.95,1.41 1.09,0.63 1.92,1.57 0.83,0.95 1.32,2.11 0.48,1.16 0.57,2.41 0.1,1.25 -0.22,2.47 -0.31,1.21 -1,2.26 -0.69,1.06 -1.67,1.84 -0.99,0.78 -2.18,1.2 -1.18,0.42 -2.44,0.44 -1.25,0.03 -2.45,-0.35 -1.2,-0.38 -2.22,-1.12 -1.01,-0.75 -1.74,-1.78 -0.72,-1.02 -1.08,-2.22 -0.36,-1.2 -0.31,-2.46 0.04,-1.26 0.49,-2.43 0.44,-1.18 1.24,-2.15 0.79,-0.98 1.86,-1.65 1.07,-0.66 2.29,-0.96 1.22,-0.29 2.47,-0.18 1.26,0.12 2.41,0.63 1.15,0.5 2.08,1.35 0.93,0.85 1.53,1.95 0.61,1.1 0.84,2.34 0.23,1.23 0.04,2.48 -0.18,1.24 -0.75,2.36 -0.56,1.12 -1.46,2 -0.9,0.88 -2.03,1.43 -1.13,0.55 -2.38,0.7 -1.25,0.16 -2.48,-0.09 -1.23,-0.24 -1.23,-0.24 0,0 -2.3,-0.97 -2.3,-0.97 -4.23,-2.56 -1.92,-1.59 -2.83,-4.32 -0.9,-2.74 -0.88,-4.93 0.01,-2.2 0.17,-4.36 0.17,-2.16 2.2,-0.25 2.02,1.92 -0.54,2.86 -2.57,0.94 -3.65,2.83 -1.08,1.89 -1.56,4.18 -0.48,2.29 -1.01,4.61 -0.52,2.33 -1,4.49 -0.48,2.17 -0.98,4.96 -0.5,2.8 -0.62,5.1 -0.12,2.31 -0.76,4.82 -0.64,2.52 -1.74,5.04 -1.09,2.52 -2.57,5.07 -1.48,2.55 -2.72,4.28 -1.24,1.72 -3.36,3.39 -2.12,1.66 -4.36,1.97 -2.24,0.3 -4.51,0.07 -2.27,-0.23 -4.32,-1.44 -2.04,-1.21 -4.03,-4.03 -1.99,-2.82 -2.26,-5.94 -0.26,-3.12 -0.19,-5.41 0.07,-2.28 0.16,-4.73 0.08,-2.46 0.32,-4.72 0.23,-2.27 0.33,-4.6 0.09,-2.32 0.13,-4.83 0.03,-2.51 0.06,-5.15 0.04,-2.63 0.04,-5.93 0,-3.3 0,-6.77 -0.01,-3.46 -0.02,-6.92 -0.01,-3.45 -0.25,-8.48 -0.24,-5.03 -0.28,-8.74 -0.04,-3.72 0.21,-7.76 0.26,-4.03 0.95,-6.5 0.68,-2.47 1.51,-4.52 0.83,-2.05 1.65,-4.04 0.82,-1.99 4.01,-0.98 3.18,1 1.33,2.82 -1.85,1.81 -3.89,3.3 -2.04,1.49 -3.07,3.36 -1.02,1.87 -1.93,4.28 -0.92,2.41 -1.67,4.8 -0.75,2.39 -1.45,4.8 -0.7,2.42 -1.42,5.1 -0.72,2.69 -1.45,5.57 -0.73,2.87 -1.46,5.72 -0.73,2.85 -1.48,5.68 -0.74,2.84 -1.71,5.94 -0.97,3.11 -1.78,5.64 -0.82,2.53 -1.75,4.93 -0.93,2.41 -1.97,4.3 -1.04,1.9 -2.24,3.69 -1.19,1.79 -3.28,3.79 -2.09,2 -5.4,2.81 -3.3,0.82 -5.73,0.8 -2.44,-0.02 -4.95,-0.42 -2.52,-0.4 -4.81,-1.27 -2.29,-0.87 -4.53,-2.75 -2.24,-1.88 -3.43,-3.96 -1.19,-2.09 -1.39,-4.52 -0.2,-2.43 -0.18,-4.64 0.01,-2.21 0.06,-4.61 0.04,-2.4 0.57,-4.83 0.53,-2.44 1.2,-4.74 0.67,-2.3 1.57,-4.29 0.91,-2 1.78,-4.03 0.88,-2.03 0.98,-4.35 0.09,-2.31 0.17,-5.12 0.07,-2.81 2.15,-0.44 2.07,2.38 0.87,4.79 -1.2,2.42 -2.22,4.65 -1.01,2.24 -1.63,4.39 -0.62,2.15 -0.79,4.4 -0.18,2.25 -0.77,5.5 -0.6,3.25 -1.19,5.47 -0.59,2.21 -2.14,5.1 -1.56,2.89 -4.15,4.74 -2.59,1.85 -5.75,2.06 -3.16,0.2 -5.3,-0.15 -2.14,-0.35 -4.24,-1.81 -2.09,-1.45 -3.71,-3.73 -1.63,-2.28 -2.89,-4.16 -1.26,-1.88 -2.46,-4.45 -1.21,-2.58 -1.71,-4.7 -0.51,-2.13 -0.6,-4.31 -0.09,-2.17 -0.05,-4.73 0.04,-2.57 -0.27,-4.94 -0.3,-2.37 -1.1,-4.38 -0.8,-2.01 -1.74,-4.36 -0.94,-2.36 -1.94,-4.54 -1,-2.18 -1.82,-4.55 -0.82,-2.37 -1.53,-4.8 -0.72,-2.42 -1.21,-5.46 -0.49,-3.03 0.46,-5.41 0.95,-2.38 0.77,0.6 -0.18,2.99 -0.34,5.52 -0.17,2.53 -0.39,5.51 -0.23,2.98 -0.64,6.86 -0.42,3.88 -0.83,6.1 -0.4,2.22 -0.89,4.57 -0.49,2.36 -0.91,4.98 -0.43,2.63 -0.64,7.3 -0.22,4.67 -0.67,8.16 -0.45,3.49 -0.73,7.55 -0.29,4.05 -0.43,8.41 -0.13,4.37 -0.06,8.5 0.07,4.13 0.28,7.93 0.22,3.8 0.43,7.12 0.22,3.31 0.35,6.16 0.13,2.85 0.07,7.2 -0.05,4.35 -0.67,7.84 -0.62,3.5 -2.13,5.48 -1.51,1.98 -3.67,3.03 -2.15,1.04 -4.41,0.93 -2.26,-0.12 -4.61,-1.11 -2.35,-0.99 -4.15,-2.18 -1.8,-1.19 -3.5,-2.96 -1.7,-1.77 -2.84,-3.87 -1.14,-2.09 -1.63,-4.4 -0.5,-2.3 -0.99,-4.64 -0.49,-2.35 -0.97,-4.82 -0.48,-2.47 -1.25,-5.7 -0.77,-3.23 -1.42,-6.67 -0.64,-3.45 -0.86,-6.43 -0.23,-2.99 -0.81,-7.6 -0.58,-4.6 -0.85,-8.59 -0.28,-3.98 -0.38,-6.3 -0.1,-2.33 -0.13,-4.57 -0.03,-2.24 -0.06,-4.38 -0.04,-2.14 -0.13,-4.33 -0.09,-2.18 -0.28,-4.45 -0.2,-2.26 -0.47,-4.51 -0.27,-2.24 -0.62,-4.49 -0.34,-2.25 -0.82,-4.63 -0.48,-2.37 -0.96,-4.56 -0.47,-2.2 -1.28,-6.13 -0.81,-3.94 -1.39,-7.62 -0.57,-3.68 -0.91,-8.17 -0.34,-4.5 -0.37,-7.57 -0.02,-3.07 -0.02,-5.55 0,-2.48 0.8,-4.5 0.79,-2.02 -1.14,-3.36 -1.92,-1.35 -2.94,1.43 -1.02,2.78 -1.63,5.79 -0.61,3 -1.22,6.95 -0.62,3.95 -0.96,6.22 -0.34,2.27 -0.74,4.71 -0.4,2.44 -0.86,5.25 -0.46,2.82 -0.88,5.99 -0.42,3.17 -0.71,6.47 -0.3,3.31 -0.61,6.59 -0.31,3.28 -0.66,6.49 -0.35,3.21 -0.59,6.09 -0.24,2.89 -0.05,7.25 0.2,4.36 0.35,8.29 0.15,3.93 0.35,7.88 0.21,3.96 0.46,7.89 0.25,3.94 0.47,7.59 0.23,3.65 0.4,6.96 0.17,3.3 0.34,6.53 0.17,3.22 0.29,6.3 0.12,3.07 0.07,5.69 -0.05,2.63 -0.33,4.87 -0.28,2.24 -0.77,4.38 -0.48,2.14 -1.14,4.28 -0.66,2.13 -2.66,5.41 -2.01,3.27 -4.03,4.44 -2.02,1.17 -4.4,1.49 -2.38,0.31 -4.81,0.05 -2.44,-0.27 -5.22,-2.17 -2.78,-1.9 -4.25,-3.94 -1.47,-2.03 -2.63,-4.96 -1.16,-2.92 -1.87,-5.01 -0.7,-2.09 -1.61,-4.29 -0.9,-2.19 -1.51,-5.25 -0.62,-3.06 -0.63,-6.22 -0.01,-3.16 0,-5.77 0.01,-2.6 0.03,-5.19 0.02,-2.58 0.03,-5.29 0.01,-2.71 -0.04,-6.3 -0.06,-3.6 -0.06,-6.73 -0.01,-3.12 0.05,-6.59 0.05,-3.45 0.3,-6.91 0.24,-3.45 0.49,-6.84 0.24,-3.39 0.62,-6.42 0.37,-3.04 0.82,-5.71 0.44,-2.68 0.91,-4.78 0.46,-2.1 0.51,-4.81 0.05,-2.7 0.04,-5.22 -0.02,-2.52 -0.46,-4.74 -0.45,-2.22 1.24,-0.83 1.7,1.38 0.94,3.51 -0.75,2.13 -1.56,4.46 -0.81,2.34 -1.45,4.78 -0.65,2.44 -1.22,5.35 -0.58,2.91 -0.95,5.61 -0.37,2.71 -0.67,5.87 -0.3,3.17 -0.38,5.77 -0.07,2.61 -0.28,5.62 -0.22,3.01 -0.35,6.39 -0.14,3.4 -0.55,7.19 -0.41,3.78 -1.3,7.13 -0.88,3.34 -2.32,6.05 -1.43,2.71 -3.33,4.76 -1.89,2.05 -4.58,3.41 -2.68,1.37 -4.96,1.46 -2.28,0.1 -4.41,-0.1 Q 6.23,31.54 4.48,30.27 2.73,28.99 1.63,26.77 0.54,24.55 0.64,22.11 0.75,19.67 1.23,17.31 1.71,14.96 1.79,12.6 1.87,10.25 1.92,7.96 1.98,5.66 2.03,3.19 2.09,0.71 1.7,-1.66 1.32,-4.05 1.09,-6.32 0.85,-8.6 3.22,-7.82 q 2.37,0.77 2.16,3 Q 5.17,-2.6 5.07,-1.3 4.97,0 4.9,0.59 4.83,1.19 4.61,1.75 4.4,2.31 4.06,2.8 3.72,3.3 3.27,3.69 2.82,4.09 2.29,4.37 1.76,4.65 1.18,4.79 0.59,4.94 0,4.94 -0.6,4.94 -1.18,4.79 -1.76,4.65 -2.29,4.37 -2.82,4.09 -3.27,3.69 -3.72,3.29 -4.06,2.8 -4.4,2.31 -4.61,1.75 -4.83,1.19 -4.9,0.59 -4.97,0 -4.97,0 Z"
       id="path33" />
  </g>
  <g
     transform="matrix(0.01318905,0,0,0.03318105,0.47319466,8.1761959)"
     stroke="none"
     id="g55">
    <path
       fill="#1e1e1e"
       d="m 0,-2.64 q 0,0 0.76,-0.04 0.77,-0.04 2.41,0.7 1.65,0.74 2.19,1.93 0.54,1.19 0.66,2.65 0.12,1.45 0.16,3.21 0.03,1.76 0.05,3.65 0.01,1.89 0.05,3.29 0.03,1.4 0.08,2.65 0.05,1.25 -0.97,0.14 Q 4.37,14.43 4.07,13.14 3.78,11.86 4.11,9.94 4.45,8.02 4.54,6.12 4.63,4.22 4.64,2.49 4.65,0.76 4.76,-0.3 q 0.1,-1.06 0.49,-2.4 0.39,-1.34 0.61,-2.51 0.23,-1.18 0.89,-2.76 0.66,-1.58 1.41,-2.62 0.76,-1.04 1.69,-1.76 0.93,-0.71 2.01,-0.95 1.07,-0.23 2.67,0.51 1.59,0.75 2.04,2.11 0.46,1.35 0.5,2.62 0.04,1.27 0.18,2.41 0.14,1.14 0.77,2.18 0.64,1.05 2.07,1.55 1.42,0.5 3.29,0.7 1.87,0.19 2.98,-0.35 1.11,-0.54 2.08,-1.55 0.98,-1.01 1.75,-1.83 0.78,-0.82 2.15,-2.1 1.36,-1.27 2.7,-0.99 1.33,0.29 2.03,1.11 0.7,0.82 0.83,1.95 0.13,1.14 -0.08,2.38 -0.2,1.25 -0.65,2.38 -0.44,1.12 -0.99,2.16 -0.56,1.05 -1.88,0.35 -1.32,-0.69 -0.67,-1.8 0.64,-1.1 1.45,-1.95 0.8,-0.85 1.7,-1.83 0.9,-0.99 2,-2.3 1.1,-1.31 2.36,-2 1.26,-0.68 2.46,-0.82 1.2,-0.13 2.82,0.66 1.62,0.79 2.07,1.8 0.45,1.01 -0.64,0.26 -1.08,-0.75 0.24,-1.81 1.31,-1.06 2.45,-1.89 1.14,-0.83 2.19,-1.38 1.04,-0.54 2.19,-0.99 1.15,-0.45 2.55,-0.06 1.4,0.38 2.27,1.16 0.87,0.77 -0.61,0.23 -1.49,-0.54 -0.08,-1.04 1.4,-0.49 2.62,-0.54 1.22,-0.04 2.44,-0.06 1.22,-0.01 2.44,0.01 1.23,0.02 2.27,0.4 1.03,0.38 3.07,2.77 2.05,2.39 2.02,2.99 -0.04,0.61 -0.26,1.18 -0.22,0.56 -0.62,1.03 -0.39,0.46 -0.91,0.78 -0.52,0.31 -1.12,0.45 -0.59,0.13 -1.19,0.06 -0.61,-0.06 -1.16,-0.32 -0.56,-0.25 -1,-0.67 -0.44,-0.42 -0.73,-0.95 -0.28,-0.54 -0.38,-1.14 -0.1,-0.6 -0.01,-1.2 0.1,-0.6 0.38,-1.14 0.29,-0.54 0.73,-0.96 0.44,-0.42 0.99,-0.68 0.55,-0.25 1.16,-0.32 0.6,-0.07 1.2,0.06 0.59,0.13 1.12,0.45 0.52,0.31 0.91,0.77 0.4,0.46 0.62,1.03 0.23,0.56 0.27,1.17 0.03,0.61 -0.13,1.2 -0.16,0.58 -0.5,1.09 -0.34,0.5 -0.83,0.87 -0.48,0.37 -1.06,0.57 -0.58,0.19 -1.18,0.19 -0.61,0.01 -1.19,-0.19 -0.58,-0.19 -1.06,-0.56 -0.49,-0.37 -0.83,-0.87 -0.34,-0.5 -0.51,-1.09 -0.16,-0.58 -0.16,-0.58 0,0 -0.27,0.53 -0.27,0.53 -1.47,0.52 -1.21,-0.01 -2.38,-0.07 -1.17,-0.06 -2.27,0.43 -1.1,0.49 -2.16,0.46 -1.06,-0.04 -2.45,-1.45 -1.38,-1.4 0.32,-0.63 1.69,0.78 0.45,1.48 -1.23,0.7 -2.3,1.58 -1.07,0.88 -2.79,2.04 -1.71,1.16 -2.89,1.44 -1.18,0.29 -2.58,0.07 -1.4,-0.21 -2.31,-1.75 -0.91,-1.55 -0.18,-0.5 0.73,1.05 -0.14,2.03 -0.86,1 -1.75,2.03 -0.89,1.03 -1.9,2.06 -1,1.03 -2.46,1.99 -1.46,0.96 -3.31,1.52 -1.86,0.56 -3,-0.13 -1.14,-0.69 -1.81,-2.68 -0.66,-2 -0.39,-3.24 0.27,-1.23 0.92,-2.35 0.64,-1.12 1.87,-1.84 1.23,-0.73 2.34,-0.53 1.12,0.21 2.32,-0.11 1.2,-0.31 0.2,1.02 -1,1.33 -2.01,2.33 Q 33.05,1.59 32.29,2.34 31.53,3.08 30.48,3.83 29.43,4.57 28.23,4.98 27.03,5.4 25,5.41 22.97,5.43 21.27,5.3 19.57,5.18 18.38,4.83 17.2,4.48 16.06,3.92 14.92,3.37 13.41,1.78 11.9,0.19 11.23,-1.25 q -0.68,-1.44 -0.92,-3.03 -0.25,-1.58 0.15,-2.62 0.4,-1.03 1.56,-0.29 1.17,0.74 0.62,2.09 -0.55,1.35 -0.96,2.9 -0.42,1.55 -0.51,3.12 -0.1,1.59 -0.12,3.55 -0.03,1.96 -0.08,3.14 -0.04,1.18 -0.16,2.37 -0.13,1.19 -0.32,2.34 -0.2,1.16 -0.48,2.32 Q 9.72,15.8 9.3,16.81 8.88,17.82 8.21,18.74 7.54,19.66 5.74,20.34 3.94,21.03 2.55,20.47 1.16,19.91 0.59,18.87 0.03,17.84 0.01,16.52 -0.01,15.2 0.02,14.06 0.06,12.92 0.08,11.23 0.1,9.54 0.11,7.61 0.11,5.69 0.82,4.21 1.53,2.72 0.76,2.68 0,2.64 -0.31,2.6 -0.63,2.56 -0.93,2.45 -1.22,2.34 -1.49,2.16 -1.75,1.97 -1.96,1.74 -2.17,1.5 -2.32,1.21 -2.47,0.93 -2.54,0.62 -2.62,0.31 -2.62,0 q 0,-0.31 0.08,-0.62 0.07,-0.31 0.22,-0.6 0.15,-0.28 0.36,-0.52 0.21,-0.23 0.47,-0.42 0.27,-0.18 0.56,-0.29 0.3,-0.11 0.62,-0.15 Q 0,-2.64 0,-2.64 Z"
       id="path53" />
  </g>
  <g
     transform="matrix(0.0108438,0,0,0.0300453,14.407644,7.9572053)"
     stroke="none"
     id="g59">
    <path
       fill="#1e1e1e"
       d="m -2.18,-1.35 q 0,0 0.71,-1.14 0.7,-1.14 1.43,-2.25 0.71,-1.11 1.39,-2.21 0.69,-1.1 1.36,-2.17 0.68,-1.07 1.3,-1.96 0.63,-0.9 1.25,-1.84 0.63,-0.95 1.69,-1.74 1.07,-0.8 3.06,-0.22 1.99,0.59 2.46,1.85 0.47,1.26 0.55,3.1 0.08,1.83 0.06,3.65 -0.03,1.82 -0.5,3.7 Q 12.1,-0.7 11.47,0.56 10.84,1.83 10.26,2.99 9.68,4.16 8.81,5.21 7.95,6.27 7.49,7.39 7.02,8.5 6.85,9.58 6.67,10.66 6.08,9.71 5.49,8.76 6.29,7.4 7.1,6.04 9.04,4.8 10.98,3.56 11.97,2.87 12.96,2.18 13.98,1.54 15,0.91 16.16,0.52 q 1.16,-0.39 2.25,-0.67 1.08,-0.28 2.15,-0.57 1.07,-0.28 1.89,-1.02 0.83,-0.73 2,-1.45 1.18,-0.72 2.26,-1.02 1.07,-0.3 2.59,-0.2 1.52,0.1 2.46,0.67 0.94,0.57 1.6,1.54 0.65,0.97 2.17,0.95 1.51,-0.02 3.37,0.03 1.86,0.06 3.02,0.1 1.16,0.04 2.24,0.06 1.07,0.03 2.88,-0.11 1.81,-0.13 3.17,-1.24 1.35,-1.11 2.25,-2.39 0.9,-1.28 1.64,-2.26 0.73,-0.97 1.71,-1.72 0.98,-0.75 2.59,-0.55 1.61,0.19 2.63,1.53 1.02,1.34 1.02,2.89 -0.01,1.55 -0.78,3.04 -0.76,1.49 -1.01,1.92 Q 60.02,0.49 59.73,0.8 59.44,1.11 59.08,1.35 58.72,1.58 58.32,1.72 57.92,1.87 57.5,1.91 57.07,1.95 56.65,1.89 56.23,1.83 55.83,1.67 55.44,1.51 55.09,1.26 54.75,1.01 54.47,0.68 54.2,0.36 54.01,-0.02 53.82,-0.4 53.72,-0.81 q -0.09,-0.42 -0.08,-0.85 0.01,-0.42 0.12,-0.83 0.11,-0.42 0.32,-0.79 0.21,-0.37 1.33,-1.06 1.13,-0.69 3.16,-1.8 2.04,-1.1 3.53,-1.74 1.48,-0.63 3.08,-1.26 1.6,-0.62 3.14,-1.15 1.55,-0.53 2.81,-0.92 1.27,-0.39 3.16,-0.76 1.89,-0.37 3.16,-0.48 1.26,-0.1 2.9,0.6 1.63,0.71 2.23,2.14 0.6,1.43 0.95,2.54 0.35,1.11 2.26,1.46 1.92,0.34 3.21,0.73 1.3,0.4 3.56,1.16 2.26,0.75 3.8,1.15 1.54,0.39 3.24,0.73 1.7,0.33 3.43,0.6 1.73,0.28 3.34,0.59 1.62,0.31 2.92,0.54 1.31,0.21 2.98,0.45 1.66,0.24 2.68,0.12 1.03,-0.12 1.41,-0.32 0.39,-0.2 0.82,-0.27 0.43,-0.07 0.86,0.01 0.43,0.07 0.81,0.26 0.39,0.21 0.69,0.52 0.29,0.32 0.48,0.72 0.18,0.39 0.23,0.83 0.04,0.43 -0.05,0.86 -0.1,0.42 -0.32,0.79 -0.23,0.38 -0.56,0.66 -0.33,0.28 -0.74,0.44 -0.4,0.16 -0.84,0.18 -0.44,0.03 -0.86,-0.09 -0.41,-0.12 -0.78,-0.36 -0.36,-0.25 -0.62,-0.6 -0.26,-0.34 -0.4,-0.76 -0.14,-0.41 -0.14,-0.85 0,-0.43 0.14,-0.85 0.14,-0.41 0.41,-0.75 0.26,-0.35 0.62,-0.6 0.37,-0.23 0.79,-0.34 0.42,-0.12 0.85,-0.1 0.44,0.03 0.84,0.19 0.41,0.15 0.74,0.44 0.33,0.28 0.55,0.65 0.23,0.38 0.32,0.8 0.09,0.43 0.04,0.86 -0.04,0.44 -0.23,0.83 -0.18,0.4 -0.48,0.71 -0.3,0.32 -0.3,0.32 0,0 -3.2,0.49 -3.19,0.5 -4.76,0.07 Q 109.7,4.68 108.41,4.4 107.12,4.13 105.65,3.85 104.19,3.58 102.39,3.42 100.59,3.26 98.67,3.08 96.75,2.89 95.16,2.59 93.57,2.3 91.15,1.96 88.73,1.63 86.29,1.08 83.85,0.53 82.21,0.14 q -1.64,-0.38 -2.94,-1.27 -1.3,-0.89 -1.65,-2.05 -0.34,-1.16 -0.58,-2.25 -0.24,-1.09 -1.6,-0.94 -1.37,0.16 -2.46,0.5 -1.09,0.34 -2.42,0.91 -1.33,0.57 -2.73,1.32 -1.4,0.75 -2.78,1.56 -1.37,0.81 -3.19,1.86 Q 60.04,0.82 59.08,1.31 58.12,1.8 59.07,1.14 60.02,0.49 59.73,0.8 59.44,1.11 59.08,1.35 58.72,1.58 58.32,1.72 57.92,1.87 57.5,1.91 57.07,1.95 56.65,1.89 56.23,1.83 55.83,1.67 55.44,1.51 55.09,1.26 54.75,1.01 54.47,0.68 54.2,0.36 54.01,-0.01 q -0.19,-0.39 -0.29,-0.8 -0.09,-0.42 -0.08,-0.85 0.01,-0.42 0.12,-0.83 0.11,-0.42 0.32,-0.79 0.21,-0.37 0.7,-1.27 0.49,-0.9 1.33,-0.16 0.84,0.73 1.83,1.46 0.99,0.73 0.06,2.04 Q 57.06,0.1 55.74,1.34 54.43,2.58 53.44,3.29 52.46,4 51.24,4.53 50.01,5.06 48.77,5.27 47.53,5.48 46.38,5.54 45.23,5.6 44.15,5.62 43.07,5.64 41.9,5.68 40.73,5.72 38.83,5.75 36.92,5.78 34.63,5.72 32.34,5.67 30.57,4.76 28.79,3.86 28.11,2.83 27.43,1.81 28.48,2.2 29.54,2.59 28.58,3.07 27.63,3.54 26.59,4.49 25.55,5.43 23.82,5.66 22.08,5.9 20.69,6.24 19.3,6.57 17.94,7.1 16.58,7.63 15.45,8.35 14.32,9.07 13.38,9.69 12.45,10.31 11.57,11.01 10.69,11.71 9.63,12.39 8.57,13.08 7.29,13.64 6.01,14.19 4.7,14.31 3.38,14.43 2.35,13.76 1.32,13.1 0.63,11.42 -0.05,9.74 0.14,8.62 0.34,7.51 0.78,6.24 1.22,4.97 2.11,3.5 3,2.03 3.75,0.98 4.5,-0.07 5.12,-1.17 q 0.62,-1.1 1.15,-2.38 0.54,-1.27 0.6,-2.86 0.06,-1.6 0.39,-2.97 0.32,-1.38 1.45,-0.89 1.12,0.48 0.1,1.71 Q 7.8,-7.34 7.12,-6.31 6.44,-5.28 5.72,-4.13 4.99,-2.99 4.3,-1.95 3.6,-0.92 2.89,0.21 2.18,1.35 1.98,1.59 1.79,1.83 1.54,2.02 1.3,2.21 1.01,2.33 0.73,2.45 0.43,2.51 0.12,2.56 -0.18,2.54 -0.49,2.51 -0.78,2.42 -1.07,2.32 -1.34,2.16 -1.6,2 -1.82,1.78 -2.03,1.55 -2.19,1.29 -2.35,1.02 -2.44,0.73 q -0.08,-0.3 -0.1,-0.61 -0.01,-0.3 0.04,-0.6 0.06,-0.31 0.19,-0.59 0.13,-0.28 0.13,-0.28 z"
       id="path57" />
  </g>
</svg>
